<?xml version="1.0" encoding="iso-8859-1"?>
<!-- Generator: Adobe Illustrator 19.0.0, SVG Export Plug-In . SVG Version: 6.00 Build 0)  -->
<svg version="1.1" id="Capa_1" xmlns="http://www.w3.org/2000/svg" xmlns:xlink="http://www.w3.org/1999/xlink" x="0px" y="0px"
	 viewBox="0 0 512 512" style="enable-background:new 0 0 512 512;" xml:space="preserve">
<g>
	<g>
		<path d="M502,480h-44.011l0.003-24.02c0.005-46.885-31.594-88.199-76.845-100.471L310,336.216V312.5
			c0-1.294-0.254-2.527-0.701-3.662c0.152-0.085,0.307-0.164,0.459-0.25c21.727-12.303,38.017-31.771,46.586-54.461h18.681
			c18.59,0,33.715-15.124,33.715-33.715V177.54c0-9.866-4.26-18.756-11.037-24.927C397.043,74.966,333.73,12,255.989,12
			c-77.607,0-140.834,62.75-141.707,140.212c-7.04,6.184-11.497,15.242-11.497,25.327v42.872c0,18.591,15.125,33.716,33.715,33.716
			h19.285c8.573,22.693,24.875,42.167,46.637,54.491l0.043,0.023c0.062,0.035,0.125,0.067,0.187,0.102
			c-0.471,1.161-0.736,2.427-0.736,3.757v23.717l-71.086,19.288C85.594,367.779,54,409.088,54,455.961V480H10
			c-5.523,0-10,4.478-10,10c0,5.522,4.477,10,10,10h492c5.523,0,10-4.478,10-10C512,484.478,507.523,480,502,480z M388.739,177.54
			v42.872c0,7.563-6.152,13.715-13.715,13.715h-13.306c0.926-5.602,1.409-11.315,1.409-17.094v-53.209h11.897
			C382.587,163.824,388.739,169.977,388.739,177.54z M136.5,234.127c-7.563,0-13.715-6.153-13.715-13.716v-42.872
			c0-7.563,6.153-13.715,13.715-13.715h12.508c0,0.059-0.008,0.117-0.008,0.176v53.033c0,5.779,0.483,11.492,1.409,17.094H136.5z
			 M149.401,143.823H136.5c-0.614,0-1.224,0.019-1.83,0.051C139.75,81.336,192.219,32,255.989,32
			c63.783,0,116.26,49.355,121.322,111.91c-0.757-0.051-1.518-0.086-2.287-0.086H362.83c-0.106-0.434-0.239-0.858-0.4-1.268
			c-5.116-54.277-50.904-96.89-106.458-96.89C199.987,45.666,153.918,88.943,149.401,143.823z M169.032,152.685
			c0-47.981,39.001-87.018,86.94-87.018c37.975,0,70.336,24.497,82.15,58.53l-24.182,16.669
			C301.476,149.458,286.886,154,271.746,154h-102.81C168.993,153.568,169.032,153.132,169.032,152.685z M169,217.033V174h102.746
			c19.212,0,37.728-5.764,53.545-16.667l17.314-11.935c0.2,2.403,0.307,4.832,0.307,7.286c0,0.707,0.075,1.395,0.215,2.061v62.288
			c0,12.991-2.988,25.577-8.451,36.923h-39.308c-1.383-10.64-10.498-18.886-21.508-18.886h-23.165
			c-11.963,0-21.696,9.732-21.696,21.695v10.386c0,11.963,9.733,21.696,21.696,21.696h23.165c9.586,0,17.735-6.253,20.597-14.892
			h26.838c-6.073,6.772-13.264,12.626-21.402,17.234c-27.001,15.327-60.556,15.348-87.624,0.019l-0.043-0.023
			C185.563,276.087,169,247.673,169,217.033z M275.556,256.765v10.386c0,0.936-0.761,1.696-1.696,1.696h-23.165
			c-0.935,0-1.696-0.761-1.696-1.696v-10.386c0-0.935,0.761-1.695,1.696-1.695h23.165
			C274.795,255.07,275.556,255.831,275.556,256.765z M74,480v-24.039c0-37.866,25.523-71.238,62.068-81.153l69.101-18.75
			L242.815,480H74z M221.917,342.38v-25.145c11.061,3.633,22.604,5.451,34.148,5.451c11.47,0,22.939-1.799,33.935-5.385v25.083
			l-34.009,112.18L221.917,342.38z M437.989,480H269.178l37.575-123.942l69.159,18.755c36.556,9.913,62.084,43.29,62.08,81.166
			L437.989,480z"/>
	</g>
</g>
<g>
	<g>
		<path d="M405.81,434.93c-1.86-1.861-4.44-2.93-7.07-2.93s-5.21,1.069-7.07,2.93c-1.86,1.861-2.93,4.44-2.93,7.07
			s1.07,5.21,2.93,7.069c1.86,1.86,4.44,2.931,7.07,2.931s5.21-1.07,7.07-2.931c1.86-1.859,2.93-4.439,2.93-7.069
			C408.74,439.359,407.67,436.79,405.81,434.93z"/>
	</g>
</g>
<g>
	<g>
		<path d="M223.86,197.001c-1.86-1.86-4.44-2.931-7.07-2.931c-2.64,0-5.21,1.07-7.08,2.931c-1.86,1.859-2.93,4.439-2.93,7.069
			c0,2.631,1.07,5.211,2.93,7.07c1.87,1.86,4.44,2.93,7.08,2.93c2.63-0.001,5.21-1.07,7.07-2.93c1.86-1.859,2.93-4.439,2.93-7.07
			C226.79,201.44,225.72,198.86,223.86,197.001z"/>
	</g>
</g>
<g>
	<g>
		<path d="M302.41,197c-1.86-1.86-4.43-2.931-7.07-2.931c-2.63,0-5.21,1.07-7.07,2.931c-1.86,1.859-2.93,4.439-2.93,7.069
			c0,2.631,1.07,5.211,2.93,7.07c1.86,1.861,4.44,2.93,7.07,2.93c2.64,0,5.21-1.069,7.07-2.93c1.86-1.859,2.93-4.439,2.93-7.07
			C305.34,201.439,304.27,198.859,302.41,197z"/>
	</g>
</g>
<g>
	<g>
		<path d="M365,432h-39c-5.523,0-10,4.478-10,10c0,5.522,4.477,10,10,10h39c5.523,0,10-4.478,10-10C375,436.478,370.523,432,365,432
			z"/>
	</g>
</g>
<g>
</g>
<g>
</g>
<g>
</g>
<g>
</g>
<g>
</g>
<g>
</g>
<g>
</g>
<g>
</g>
<g>
</g>
<g>
</g>
<g>
</g>
<g>
</g>
<g>
</g>
<g>
</g>
<g>
</g>
</svg>
